<svg xmlns="http://www.w3.org/2000/svg" width="118.117" height="33.992" viewBox="0 0 118.117 33.992">
  <g id="logo-white" transform="translate(-2976.128 -1197.41)">
    <path id="Path_3648" data-name="Path 3648" d="M108.934-520.115a14.452,14.452,0,0,1-4.1,2.225,14.571,14.571,0,0,1-3.88.793h-3.73a13.426,13.426,0,0,1-9.4-3.9,13.377,13.377,0,0,1-3.759-9.588V-550h7v17.779a7.725,7.725,0,0,0,2.087,6.07,7.746,7.746,0,0,0,6.381,2.121,12.643,12.643,0,0,0,2.414-.638,12.108,12.108,0,0,0,3.794-2.363,17.322,17.322,0,0,0,.707,2.483,16.53,16.53,0,0,0,2.486,4.433Z" transform="translate(2892.066 1747.773)" fill="#fff" opacity="0.6"/>
    <path id="Path_3649" data-name="Path 3649" d="M355.972-550.6h7.1v8.881l-7.277,10.64Z" transform="translate(2667.187 1748.269)" fill="#fff" opacity="0.6"/>
    <path id="Path_3650" data-name="Path 3650" d="M254.443-528.669c.276-.431.6-.931.914-1.431,1.224-1.88,1.673-2.673,1.845-2.983a3.535,3.535,0,0,1,.224-.431c.155-.276.31-.517.448-.759a19.329,19.329,0,0,1,2.311-2.9h0c.1-.155.207-.293.328-.448a11.221,11.221,0,0,1,5.242-2.621,23.753,23.753,0,0,1,2.483-.172c.517-.017.948,0,1.242,0v-.69a2.53,2.53,0,0,1,.345.086v-6.208l-.345-.052v-.224h-4.087a12.805,12.805,0,0,0-3.9,1.242,13.236,13.236,0,0,0-3.018,2.121,59.829,59.829,0,0,0-7.846,9.761c-.155.241-.31.466-.448.707-3.984,6.225-7.726,11.813-12.8,12.416a10.327,10.327,0,0,1-7.433-2.363,7.172,7.172,0,0,1-1.621-1.9,9.743,9.743,0,0,1-1.069-3.9,19.8,19.8,0,0,1-.172-2.656c-2.363.052-4.742.121-7.1.172a20.322,20.322,0,0,0,1.776,8.691,13.779,13.779,0,0,0,4.087,5.674,12.691,12.691,0,0,0,7.415,2.587h3.656a13.271,13.271,0,0,0,7.76-2.5c.328-.207.569-.362.69-.448.259-.19.466-.345.707-.535a25.554,25.554,0,0,0,5.4-6.036c.293-.414.793-1.138,1.587-2.276C253.512-527.358,253.978-528.013,254.443-528.669Z" transform="translate(2779.581 1745.704)" fill="#fff"/>
    <path id="Path_3651" data-name="Path 3651" d="M436.866-541.3v6.674a10.693,10.693,0,0,1,4.484,8.9c0,5.76-4.208,10.433-9.4,10.433-4.794,0-8.76-4-9.329-9.157l-4.122,6.26c2.466,5.346,7.484,9.019,13.279,9.019,8.243,0,14.917-7.415,14.917-16.555C446.7-532.885,442.591-538.989,436.866-541.3Z" transform="translate(2615.3 1740.573)" fill="#fff" opacity="0.6"/>
    <rect id="Rectangle_513" data-name="Rectangle 513" width="7" height="12" transform="translate(3000 1198)" fill="#fff" opacity="0.6"/>
    <path id="Path_3652" data-name="Path 3652" d="M610.917-545.875a8.5,8.5,0,0,1,3.363.69v-6.484a13.619,13.619,0,0,0-3.363-.431c-8.243,0-14.917,7.45-14.917,16.641a18.6,18.6,0,0,0,.776,5.329l4.967-7.433C602.622-542.288,606.4-545.875,610.917-545.875Z" transform="translate(2468.409 1749.51)" fill="#fff" opacity="0.6"/>
    <path id="Path_3653" data-name="Path 3653" d="M636.426-528.738c0-.207,0-.414-.017-.621v-.069c-.242-6.536-3.846-12.106-8.95-14.572v7.208a10.888,10.888,0,0,1,3.4,8.053c0,5.76-4.19,10.433-9.347,10.433a3.6,3.6,0,0,1-.431-.017,9.686,9.686,0,0,1-8.416-7.467l-3.863,5.777a14.648,14.648,0,0,0,12.692,7.915c7.415,0,13.554-6.036,14.727-13.934a17.4,17.4,0,0,0,.207-2.707Z" transform="translate(2457.817 1742.807)" fill="#fff" opacity="0.6"/>
  </g>
</svg>
